<svg xmlns="http://www.w3.org/2000/svg" viewBox="0 0 394.55 99.55"><defs><style>.cls-1{fill:gray;}.cls-2{font-size:48.27px;fill:#fff;font-family:SpaceGrotesk-Medium, Space Grotesk;}</style></defs><title>Logo-H_w</title><g id="Layer_2" data-name="Layer 2"><g id="Layer_6" data-name="Layer 6"><polyline class="cls-1" points="104.43 62.76 90.55 7.29 80.32 7.29 66.45 62.76 52.58 7.29 42.35 7.29 28.47 62.77 23.1 41.26 0 41.26 0 51.81 14.86 51.81 23.36 85.79 33.59 85.79 47.47 30.31 61.33 85.79 71.56 85.79 85.44 30.31 99.31 85.79 109.55 85.79 118.03 51.81 128.79 51.81 137.28 85.79 147.52 85.79 156.01 51.81 170.88 51.81 170.88 41.26 147.78 41.26 142.4 62.77 128.53 7.29 118.29 7.29"/><text class="cls-2" transform="translate(187.17 41.03)">MUBARIZ<tspan x="0" y="45">AHMED</tspan></text></g></g></svg>